<svg width="640" height="144" viewBox="0 0 640 144" fill="none" xmlns="http://www.w3.org/2000/svg">
<path d="M330.6 42.08C337.08 42.08 345.08 46.32 354.6 54.8C367.56 69.84 374.04 85.44 374.04 101.6C374.04 117.68 366.16 128.68 350.4 134.6L347.04 135.08C338.56 135.08 331.92 128.92 327.12 116.6H326.88C324.08 126.6 320.32 131.6 315.6 131.6H314.88C308.64 131.6 304.36 119.84 302.04 96.32V89.36C302.2 81.04 304.56 76.28 309.12 75.08C310.4 75.08 311.56 76.32 312.6 78.8C310.28 82 309.12 85.76 309.12 90.08V91.16C309.12 105.96 311.28 116.96 315.6 124.16C318.8 121.84 321.16 112.32 322.68 95.6C322.68 82.08 323.68 75.32 325.68 75.32L326.88 75.08C329.52 75.08 330.84 77.68 330.84 82.88L330.12 96.08C330.12 104.96 332.88 114.2 338.4 123.8C341.12 126.52 343.88 127.88 346.68 127.88C351.24 127.88 356.12 125.04 361.32 119.36C365 114.48 366.84 108.32 366.84 100.88C366.84 84.4 359.6 69.28 345.12 55.52C341.36 52.48 335.6 50 327.84 48.08L326.88 45.8C327.44 43.32 328.68 42.08 330.6 42.08ZM458.841 59.72H459.321C469.001 61.48 473.841 66.16 473.841 73.76V75.92C473.841 84.32 468.481 92.68 457.761 101V101.48C475.121 117 487.121 124.76 493.761 124.76C494.961 125.64 495.561 126.72 495.561 128C495.561 129.84 494.201 131 491.481 131.48C484.841 131.48 472.441 123.48 454.281 107.48L449.121 104.72H448.761C451.001 113.68 452.121 120.6 452.121 125.48C452.121 127.56 450.841 129.04 448.281 129.92C444.601 129.92 442.281 120.92 441.321 102.92C438.761 94.6 437.481 87.96 437.481 83V81.92C437.481 74.64 439.081 71 442.281 71L444.561 72.2H445.281C449.121 63.88 453.641 59.72 458.841 59.72ZM449.121 91.76L448.761 96.2C456.201 96.2 462.201 90.04 466.761 77.72V73.28C466.761 69.76 464.361 67.64 459.561 66.92H458.841C453.801 66.92 450.561 75.2 449.121 91.76ZM521.064 50.36C522.504 50.36 523.624 51.36 524.424 53.36C520.984 62.48 519.264 74.36 519.264 89V102.08H519.504C523.984 97.6 530.904 83.76 540.264 60.56C542.664 57.52 544.504 56 545.784 56H546.264C547.624 56 548.704 56.76 549.504 58.28V60.56C547.264 61.92 541.784 73.24 533.064 94.52L523.224 109.28V109.52C532.264 118.88 541.664 123.56 551.424 123.56H555.984C558.944 123.56 560.944 123.28 561.984 122.72C564.144 123.6 565.224 124.88 565.224 126.56V127.52C565.224 129.52 561.744 130.52 554.784 130.52H552.984C541.544 130.52 530.624 125.8 520.224 116.36H519.504V130.28C519.504 133 518.264 134.36 515.784 134.36C513.544 134.36 512.424 133 512.424 130.28V116C509.464 113.76 507.984 111.36 507.984 108.8C507.984 106.64 509.344 105.56 512.064 105.56V88.52C512.064 73 514.064 60.68 518.064 51.56C519.104 50.76 520.104 50.36 521.064 50.36ZM615.057 56.96H616.257C618.497 56.96 619.777 58.28 620.097 60.92C620.097 63.24 616.937 64.4 610.617 64.4C600.457 68.24 593.617 73.84 590.097 81.2L589.257 84.68V85.4C589.257 88.92 591.617 90.68 596.337 90.68L609.537 89.96C618.417 89.96 624.417 94.28 627.537 102.92L628.257 107.12C628.257 115.44 621.537 123.04 608.097 129.92C604.097 131.04 600.577 131.8 597.537 132.2C589.377 132.2 583.617 127.6 580.257 118.4C579.297 115.28 578.817 112.12 578.817 108.92C578.817 107.96 579.577 106.96 581.097 105.92H582.537C585.017 105.92 586.257 109.08 586.257 115.4C588.337 121.64 591.617 124.76 596.097 124.76H599.337C605.817 124.76 612.217 121 618.537 113.48C620.217 111.08 621.057 108.48 621.057 105.68C621.057 101.76 617.977 99 611.817 97.4H611.337L595.617 97.76C586.897 96.72 582.537 93.12 582.537 86.96L582.057 85.4C582.057 77.16 588.217 69.16 600.537 61.4C605.897 58.44 610.737 56.96 615.057 56.96Z" fill="black"/>
<g filter="url(#filter0_ii_293_76)">
<path fill-rule="evenodd" clip-rule="evenodd" d="M398.687 110.938C397.775 110.68 396.407 110.942 395.065 111.211C393.361 111.567 391.638 111.891 390.127 111.464C387.757 110.793 386.101 109.486 385.21 107.666C384.357 105.91 384.272 103.723 384.98 101.219C386.064 97.3888 389.022 92.8988 393.16 90.2028C396.482 88.006 400.586 86.9227 405.118 88.2048C409.624 89.4795 412.552 92.5523 414.231 96.1639C416.343 100.628 416.511 106.002 415.427 109.833C414.719 112.337 413.501 114.155 411.854 115.204C410.141 116.287 408.046 116.533 405.676 115.862C404.166 115.435 402.894 114.264 401.629 113.068C400.6 112.128 399.572 111.188 398.687 110.938ZM413.963 73.3473C415.588 72.3741 417.482 72.0445 419.305 72.5603L419.592 72.6413C421.282 73.2278 422.54 74.4489 423.261 75.9778C423.937 77.4669 424.083 79.2387 423.58 81.0163C423.551 81.1164 423.509 81.2667 423.459 81.4419C422.817 83.3152 421.514 84.8393 419.987 85.7596C418.369 86.7078 416.475 87.0373 414.652 86.5216L414.366 86.4405C412.675 85.854 411.41 84.6579 410.696 83.104C410.021 81.6149 409.875 79.8431 410.378 78.0655C410.406 77.9654 410.441 77.8402 410.498 77.6399C411.141 75.7666 412.437 74.2675 413.963 73.3473ZM401.204 67.4392C403.027 67.955 404.467 69.2278 405.342 70.9084C406.16 72.4918 406.478 74.4477 406.044 76.3799C405.988 76.5802 405.952 76.7054 405.924 76.8055C405.421 78.5831 404.369 80.0159 403.013 80.9303C401.591 81.88 399.887 82.2362 398.14 81.85L397.853 81.7689C396.03 81.2531 394.59 79.9804 393.708 78.3248C392.89 76.7414 392.578 74.7605 393.012 72.8283C393.062 72.653 393.104 72.5028 393.133 72.4026C393.636 70.6251 394.688 69.1922 396.044 68.2778C397.459 67.3532 399.17 66.972 400.917 67.3582L401.204 67.4392ZM422.405 89.7424C423.799 88.8928 425.463 88.5794 427.051 89.0289L427.312 89.1026C428.775 89.5977 429.872 90.6921 430.472 92.0516C431.06 93.3537 431.184 94.9031 430.738 96.4804L430.606 96.8485C430.06 98.4788 428.951 99.8145 427.623 100.629C426.223 101.503 424.559 101.817 422.97 101.367L422.717 101.269C421.253 100.773 420.149 99.704 419.549 98.3445C418.961 97.0424 418.844 95.468 419.283 93.9158L419.416 93.5476C419.968 91.8923 421.078 90.5566 422.405 89.7424ZM385.978 77.4089C387.567 77.8584 388.82 78.9971 389.562 80.4508C390.266 81.8398 390.511 83.5586 390.115 85.2581L390.035 85.641C389.595 87.1933 388.671 88.473 387.488 89.274C386.265 90.1177 384.764 90.4503 383.258 90.1054L382.991 90.0567C381.402 89.6073 380.149 88.4686 379.414 86.9898C378.71 85.6008 378.465 83.882 378.854 82.2075L378.934 81.8246C379.38 80.2473 380.298 78.9927 381.481 78.1917C382.704 77.348 384.212 76.9903 385.718 77.3352L385.978 77.4089Z" fill="black"/>
</g>
<path d="M30.6 42.08C37.08 42.08 45.08 46.32 54.6 54.8C67.56 69.84 74.04 85.44 74.04 101.6C74.04 117.68 66.16 128.68 50.4 134.6L47.04 135.08C38.56 135.08 31.92 128.92 27.12 116.6H26.88C24.08 126.6 20.32 131.6 15.6 131.6H14.88C8.64 131.6 4.36 119.84 2.04 96.32V89.36C2.2 81.04 4.56 76.28 9.12 75.08C10.4 75.08 11.56 76.32 12.6 78.8C10.28 82 9.12 85.76 9.12 90.08V91.16C9.12 105.96 11.28 116.96 15.6 124.16C18.8 121.84 21.16 112.32 22.68 95.6C22.68 82.08 23.68 75.32 25.68 75.32L26.88 75.08C29.52 75.08 30.84 77.68 30.84 82.88L30.12 96.08C30.12 104.96 32.88 114.2 38.4 123.8C41.12 126.52 43.88 127.88 46.68 127.88C51.24 127.88 56.12 125.04 61.32 119.36C65 114.48 66.84 108.32 66.84 100.88C66.84 84.4 59.6 69.28 45.12 55.52C41.36 52.48 35.6 50 27.84 48.08L26.88 45.8C27.44 43.32 28.68 42.08 30.6 42.08ZM101.126 63.08L104.126 62.6H105.326C106.926 62.6 108.686 63.6 110.606 65.6C114.126 65.6 119.126 70 125.606 78.8C131.126 89.2 133.886 98.44 133.886 106.52C133.886 117.56 129.886 124.92 121.886 128.6L114.326 130.16C102.326 130.16 93.6862 121.16 88.4062 103.16C87.2062 98.44 86.6062 93.84 86.6062 89.36V88.16C86.6062 74.64 91.4462 66.28 101.126 63.08ZM100.046 74.6L97.4062 73.52C94.9262 76.48 93.6862 80.76 93.6862 86.36V89.6C93.6862 104.4 98.6862 115.16 108.686 121.88L112.046 122.6H116.606C120.766 122.6 123.766 120 125.606 114.8L126.326 109.52V105.8C126.326 93.8 121.566 83.04 112.046 73.52L107.126 72.08H106.886C105.286 72.08 103.006 72.92 100.046 74.6ZM161.178 63.08L164.178 62.6H165.378C166.978 62.6 168.738 63.6 170.658 65.6C174.178 65.6 179.178 70 185.658 78.8C191.178 89.2 193.938 98.44 193.938 106.52C193.938 117.56 189.938 124.92 181.938 128.6L174.378 130.16C162.378 130.16 153.738 121.16 148.458 103.16C147.258 98.44 146.658 93.84 146.658 89.36V88.16C146.658 74.64 151.498 66.28 161.178 63.08ZM160.098 74.6L157.458 73.52C154.978 76.48 153.738 80.76 153.738 86.36V89.6C153.738 104.4 158.738 115.16 168.738 121.88L172.098 122.6H176.658C180.818 122.6 183.818 120 185.658 114.8L186.378 109.52V105.8C186.378 93.8 181.618 83.04 172.098 73.52L167.178 72.08H166.938C165.338 72.08 163.058 72.92 160.098 74.6ZM242.229 52.88C246.309 52.88 248.709 54.36 249.429 57.32C249.429 58.52 248.269 59.8 245.949 61.16L241.989 60.08H241.509C237.029 60.08 231.909 66.44 226.149 79.16C225.349 82.28 224.949 85.28 224.949 88.16V93.08H225.429C235.189 90.76 241.429 89.6 244.149 89.6C247.669 90.24 249.429 91.64 249.429 93.8C248.709 96.04 247.549 97.16 245.949 97.16L243.789 96.8C235.629 97.52 229.629 98.76 225.789 100.52V101.36L227.229 120.8C227.229 130 225.389 134.6 221.709 134.6C220.429 134.6 219.269 133.6 218.229 131.6C219.509 128.32 220.149 124.2 220.149 119.24C220.149 114.2 219.669 108.48 218.709 102.08L212.949 102.8C207.749 102.32 205.149 100.68 205.149 97.88C205.949 95.64 207.229 94.52 208.989 94.52L211.989 95.36H214.149L217.989 94.88V88.16C217.989 75.76 223.469 64.88 234.429 55.52C236.909 53.76 239.509 52.88 242.229 52.88Z" fill="black"/>
<defs>
<filter id="filter0_ii_293_76" x="378.669" y="67.209" width="52.3379" height="52.0254" filterUnits="userSpaceOnUse" color-interpolation-filters="sRGB">
<feFlood flood-opacity="0" result="BackgroundImageFix"/>
<feBlend mode="normal" in="SourceGraphic" in2="BackgroundImageFix" result="shape"/>
<feColorMatrix in="SourceAlpha" type="matrix" values="0 0 0 0 0 0 0 0 0 0 0 0 0 0 0 0 0 0 127 0" result="hardAlpha"/>
<feOffset dy="3"/>
<feGaussianBlur stdDeviation="2"/>
<feComposite in2="hardAlpha" operator="arithmetic" k2="-1" k3="1"/>
<feColorMatrix type="matrix" values="0 0 0 0 0 0 0 0 0 0 0 0 0 0 0 0 0 0 0.7 0"/>
<feBlend mode="normal" in2="shape" result="effect1_innerShadow_293_76"/>
<feColorMatrix in="SourceAlpha" type="matrix" values="0 0 0 0 0 0 0 0 0 0 0 0 0 0 0 0 0 0 127 0" result="hardAlpha"/>
<feOffset dy="2"/>
<feGaussianBlur stdDeviation="2.5"/>
<feComposite in2="hardAlpha" operator="arithmetic" k2="-1" k3="1"/>
<feColorMatrix type="matrix" values="0 0 0 0 0 0 0 0 0 0 0 0 0 0 0 0 0 0 0.3 0"/>
<feBlend mode="normal" in2="effect1_innerShadow_293_76" result="effect2_innerShadow_293_76"/>
</filter>
</defs>
</svg>
