<svg width="640" height="144" viewBox="0 0 640 144" fill="none" xmlns="http://www.w3.org/2000/svg">
<path d="M330.6 42.08C337.08 42.08 345.08 46.32 354.6 54.8C367.56 69.84 374.04 85.44 374.04 101.6C374.04 117.68 366.16 128.68 350.4 134.6L347.04 135.08C338.56 135.08 331.92 128.92 327.12 116.6H326.88C324.08 126.6 320.32 131.6 315.6 131.6H314.88C308.64 131.6 304.36 119.84 302.04 96.32V89.36C302.2 81.04 304.56 76.28 309.12 75.08C310.4 75.08 311.56 76.32 312.6 78.8C310.28 82 309.12 85.76 309.12 90.08V91.16C309.12 105.96 311.28 116.96 315.6 124.16C318.8 121.84 321.16 112.32 322.68 95.6C322.68 82.08 323.68 75.32 325.68 75.32L326.88 75.08C329.52 75.08 330.84 77.68 330.84 82.88L330.12 96.08C330.12 104.96 332.88 114.2 338.4 123.8C341.12 126.52 343.88 127.88 346.68 127.88C351.24 127.88 356.12 125.04 361.32 119.36C365 114.48 366.84 108.32 366.84 100.88C366.84 84.4 359.6 69.28 345.12 55.52C341.36 52.48 335.6 50 327.84 48.08L326.88 45.8C327.44 43.32 328.68 42.08 330.6 42.08ZM458.841 59.72H459.321C469.001 61.48 473.841 66.16 473.841 73.76V75.92C473.841 84.32 468.481 92.68 457.761 101V101.48C475.121 117 487.121 124.76 493.761 124.76C494.961 125.64 495.561 126.72 495.561 128C495.561 129.84 494.201 131 491.481 131.48C484.841 131.48 472.441 123.48 454.281 107.48L449.121 104.72H448.761C451.001 113.68 452.121 120.6 452.121 125.48C452.121 127.56 450.841 129.04 448.281 129.92C444.601 129.92 442.281 120.92 441.321 102.92C438.761 94.6 437.481 87.96 437.481 83V81.92C437.481 74.64 439.081 71 442.281 71L444.561 72.2H445.281C449.121 63.88 453.641 59.72 458.841 59.72ZM449.121 91.76L448.761 96.2C456.201 96.2 462.201 90.04 466.761 77.72V73.28C466.761 69.76 464.361 67.64 459.561 66.92H458.841C453.801 66.92 450.561 75.2 449.121 91.76ZM521.064 50.36C522.504 50.36 523.624 51.36 524.424 53.36C520.984 62.48 519.264 74.36 519.264 89V102.08H519.504C523.984 97.6 530.904 83.76 540.264 60.56C542.664 57.52 544.504 56 545.784 56H546.264C547.624 56 548.704 56.76 549.504 58.28V60.56C547.264 61.92 541.784 73.24 533.064 94.52L523.224 109.28V109.52C532.264 118.88 541.664 123.56 551.424 123.56H555.984C558.944 123.56 560.944 123.28 561.984 122.72C564.144 123.6 565.224 124.88 565.224 126.56V127.52C565.224 129.52 561.744 130.52 554.784 130.52H552.984C541.544 130.52 530.624 125.8 520.224 116.36H519.504V130.28C519.504 133 518.264 134.36 515.784 134.36C513.544 134.36 512.424 133 512.424 130.28V116C509.464 113.76 507.984 111.36 507.984 108.8C507.984 106.64 509.344 105.56 512.064 105.56V88.52C512.064 73 514.064 60.68 518.064 51.56C519.104 50.76 520.104 50.36 521.064 50.36ZM615.057 56.96H616.257C618.497 56.96 619.777 58.28 620.097 60.92C620.097 63.24 616.937 64.4 610.617 64.4C600.457 68.24 593.617 73.84 590.097 81.2L589.257 84.68V85.4C589.257 88.92 591.617 90.68 596.337 90.68L609.537 89.96C618.417 89.96 624.417 94.28 627.537 102.92L628.257 107.12C628.257 115.44 621.537 123.04 608.097 129.92C604.097 131.04 600.577 131.8 597.537 132.2C589.377 132.2 583.617 127.6 580.257 118.4C579.297 115.28 578.817 112.12 578.817 108.92C578.817 107.96 579.577 106.96 581.097 105.92H582.537C585.017 105.92 586.257 109.08 586.257 115.4C588.337 121.64 591.617 124.76 596.097 124.76H599.337C605.817 124.76 612.217 121 618.537 113.48C620.217 111.08 621.057 108.48 621.057 105.68C621.057 101.76 617.977 99 611.817 97.4H611.337L595.617 97.76C586.897 96.72 582.537 93.12 582.537 86.96L582.057 85.4C582.057 77.16 588.217 69.16 600.537 61.4C605.897 58.44 610.737 56.96 615.057 56.96Z" fill="white"/>
<g filter="url(#filter0_ii_293_75)">
<path fill-rule="evenodd" clip-rule="evenodd" d="M398.687 110.938C397.775 110.68 396.407 110.942 395.065 111.211C393.361 111.567 391.638 111.891 390.127 111.464C387.757 110.793 386.101 109.486 385.21 107.666C384.357 105.91 384.272 103.723 384.98 101.219C386.064 97.3888 389.022 92.8988 393.16 90.2028C396.482 88.006 400.586 86.9227 405.118 88.2048C409.624 89.4795 412.552 92.5523 414.231 96.1639C416.343 100.628 416.511 106.002 415.427 109.833C414.719 112.337 413.501 114.155 411.854 115.204C410.141 116.287 408.046 116.533 405.676 115.862C404.166 115.435 402.894 114.264 401.629 113.068C400.6 112.128 399.572 111.188 398.687 110.938ZM413.963 73.3473C415.588 72.3741 417.482 72.0445 419.305 72.5603L419.592 72.6413C421.282 73.2278 422.54 74.4489 423.261 75.9778C423.937 77.4669 424.083 79.2387 423.58 81.0163C423.551 81.1164 423.509 81.2667 423.459 81.4419C422.817 83.3152 421.514 84.8393 419.987 85.7596C418.369 86.7078 416.475 87.0373 414.652 86.5216L414.366 86.4405C412.675 85.854 411.41 84.6579 410.696 83.104C410.021 81.6149 409.875 79.8431 410.378 78.0655C410.406 77.9654 410.441 77.8402 410.498 77.6399C411.141 75.7666 412.437 74.2675 413.963 73.3473ZM401.204 67.4392C403.027 67.955 404.467 69.2278 405.342 70.9084C406.16 72.4918 406.478 74.4477 406.044 76.3799C405.988 76.5802 405.952 76.7054 405.924 76.8055C405.421 78.5831 404.369 80.0159 403.013 80.9303C401.591 81.88 399.887 82.2362 398.14 81.85L397.853 81.7689C396.03 81.2531 394.59 79.9804 393.708 78.3248C392.89 76.7414 392.578 74.7605 393.012 72.8283C393.062 72.653 393.104 72.5028 393.133 72.4026C393.636 70.6251 394.688 69.1922 396.044 68.2778C397.459 67.3532 399.17 66.972 400.917 67.3582L401.204 67.4392ZM422.405 89.7424C423.799 88.8928 425.463 88.5794 427.051 89.0289L427.312 89.1026C428.775 89.5977 429.872 90.6921 430.472 92.0516C431.06 93.3537 431.184 94.9031 430.738 96.4804L430.606 96.8485C430.06 98.4788 428.951 99.8145 427.623 100.629C426.223 101.503 424.559 101.817 422.97 101.367L422.717 101.269C421.253 100.773 420.149 99.704 419.549 98.3445C418.961 97.0424 418.844 95.468 419.283 93.9158L419.416 93.5476C419.968 91.8923 421.078 90.5566 422.405 89.7424ZM385.978 77.4089C387.567 77.8584 388.82 78.9971 389.562 80.4508C390.266 81.8398 390.511 83.5586 390.115 85.2581L390.035 85.641C389.595 87.1933 388.671 88.473 387.488 89.274C386.265 90.1177 384.764 90.4503 383.258 90.1054L382.991 90.0567C381.402 89.6073 380.149 88.4686 379.414 86.9898C378.71 85.6008 378.465 83.882 378.854 82.2075L378.934 81.8246C379.38 80.2473 380.298 78.9927 381.481 78.1917C382.704 77.348 384.212 76.9903 385.718 77.3352L385.978 77.4089Z" fill="url(#paint0_linear_293_75)"/>
</g>
<path d="M422.717 101.269L422.898 100.803L422.888 100.799L422.877 100.795L422.717 101.269ZM422.717 101.269C421.253 100.773 420.149 99.704 419.549 98.3445M422.717 101.269L419.549 98.3445M419.549 98.3445L420.007 98.1426L420.005 98.1387L419.549 98.3445ZM419.549 98.3445C418.961 97.0424 418.844 95.468 419.283 93.9158L419.416 93.5476M419.549 98.3445L427.051 89.0289C425.463 88.5794 423.799 88.8928 422.405 89.7424C421.078 90.5566 419.968 91.8923 419.416 93.5476M419.416 93.5476L419.886 93.7167L419.89 93.7059L419.416 93.5476ZM390.115 85.2581L389.628 85.1445L389.625 85.1556L390.115 85.2581ZM390.115 85.2581L390.035 85.641M390.115 85.2581C390.511 83.5586 390.266 81.8398 389.562 80.4508L390.035 85.641M390.035 85.641C389.595 87.1933 388.671 88.473 387.488 89.274M390.035 85.641L379.414 86.9898C380.149 88.4686 381.402 89.6073 382.991 90.0567L383.258 90.1054M387.488 89.274L387.207 88.8599L387.204 88.8624L387.488 89.274ZM387.488 89.274C386.265 90.1177 384.764 90.4503 383.258 90.1054M383.258 90.1054L383.37 89.618L383.359 89.6155L383.348 89.6135L383.258 90.1054ZM404.898 71.1384C404.079 69.5664 402.743 68.3945 401.068 67.9203L404.898 71.1384ZM404.898 71.1384C405.663 72.6192 405.962 74.45 405.559 76.2572L405.559 76.2578L405.559 76.2589L405.559 76.2601L405.558 76.2612L405.558 76.2624L405.558 76.2635L405.557 76.2646L405.557 76.2658L405.557 76.2669L405.556 76.2681L405.556 76.2692L405.556 76.2703L405.555 76.2715L405.555 76.2726L405.555 76.2737L405.554 76.2749L405.554 76.276L405.554 76.2771L405.554 76.2782L405.553 76.2794L405.553 76.2805L405.553 76.2816L405.552 76.2827L405.552 76.2838L405.552 76.2849L405.551 76.2861L405.551 76.2872L405.551 76.2883L405.55 76.2894L405.55 76.2905L405.55 76.2916L405.549 76.2927L405.549 76.2938L405.549 76.2949L405.548 76.296L405.548 76.2971L405.548 76.2982L405.548 76.2993L405.547 76.3004L405.547 76.3015L405.547 76.3025L405.546 76.3036L405.546 76.3047L405.546 76.3058L405.545 76.3069L405.545 76.308L405.545 76.309L405.544 76.3101L405.544 76.3112L405.544 76.3123L405.544 76.3133L405.543 76.3144L405.543 76.3155L405.543 76.3165L405.542 76.3176L405.542 76.3187L405.542 76.3197L405.541 76.3208L405.541 76.3219L405.541 76.3229L405.541 76.324L405.54 76.325L405.54 76.3261L405.54 76.3271L405.539 76.3282L405.539 76.3292L405.539 76.3303L405.538 76.3313L405.538 76.3324L405.538 76.3334L405.538 76.3345L405.537 76.3355L405.537 76.3365L405.537 76.3376L405.536 76.3386L405.536 76.3396L405.536 76.3407L405.536 76.3417L405.535 76.3427L405.535 76.3438L405.535 76.3448L405.534 76.3458L405.534 76.3468L405.534 76.3478L405.534 76.3489L405.533 76.3499L405.533 76.3509L405.533 76.3519L405.532 76.3529L405.532 76.3539L405.532 76.355L405.532 76.356L405.531 76.357L405.531 76.358L405.531 76.359L405.53 76.36L405.53 76.361L405.53 76.362L405.53 76.363L405.529 76.364L405.529 76.365L405.529 76.366L405.528 76.367L405.528 76.368L405.528 76.3689L405.528 76.3699L405.527 76.3709L405.527 76.3719L405.527 76.3729L405.526 76.3739L405.526 76.3749L405.526 76.3758L405.526 76.3768L405.525 76.3778L405.525 76.3788L405.525 76.3797L405.525 76.3807L405.524 76.3817L405.524 76.3827L405.524 76.3836L405.523 76.3846L405.523 76.3856L405.523 76.3865L405.523 76.3875L405.522 76.3884L405.522 76.3894L405.522 76.3904L405.522 76.3913L405.521 76.3923L405.521 76.3932L405.521 76.3942L405.52 76.3951L405.52 76.3961L405.52 76.397L405.52 76.398L405.519 76.3989L405.519 76.3999L405.519 76.4008L405.519 76.4018L405.518 76.4027L405.518 76.4036L405.518 76.4046L405.518 76.4055L405.517 76.4064L405.517 76.4074L405.517 76.4083L405.516 76.4092L405.516 76.4102L405.516 76.4111L405.516 76.412L405.515 76.4129L405.515 76.4139L405.515 76.4148L405.515 76.4157L405.514 76.4166L405.514 76.4175L405.514 76.4185L405.514 76.4194L405.513 76.4203L405.513 76.4212L405.513 76.4221L405.513 76.423L405.512 76.4239L405.512 76.4248L405.512 76.4258L405.512 76.4267L405.511 76.4276L405.511 76.4285L405.511 76.4294L405.511 76.4303L405.51 76.4312L405.51 76.4321L405.51 76.433L405.509 76.4339L405.509 76.4347L405.509 76.4356L405.509 76.4365L405.508 76.4374L405.508 76.4383L405.508 76.4392L405.508 76.4401L405.507 76.441L405.507 76.4418L405.507 76.4427L405.507 76.4436L405.506 76.4445L405.506 76.4454L405.506 76.4462L405.506 76.4471L405.505 76.448L405.505 76.4489L405.505 76.4497L405.505 76.4506L405.505 76.4515L405.504 76.4523L405.504 76.4532L405.504 76.4541L405.504 76.4549L405.503 76.4558L405.503 76.4567L405.503 76.4575L405.503 76.4584L405.502 76.4592L405.502 76.4601L405.502 76.4609L405.502 76.4618L405.501 76.4626L405.501 76.4635L405.501 76.4644L405.501 76.4652L405.5 76.466L405.5 76.4669L405.5 76.4677L405.5 76.4686L405.499 76.4694L405.499 76.4703L405.499 76.4711L405.499 76.4719L405.498 76.4728L405.498 76.4736L405.498 76.4745L405.498 76.4753L405.498 76.4761L405.497 76.477L405.497 76.4778L405.497 76.4786L405.497 76.4794L405.496 76.4803L405.496 76.4811L405.496 76.4819L405.496 76.4827L405.495 76.4836L405.495 76.4844L405.495 76.4852L405.495 76.486L405.494 76.4868L405.494 76.4877L405.494 76.4885L405.494 76.4893L405.494 76.4901L405.493 76.4909L405.493 76.4917L405.493 76.4925L405.493 76.4934L405.492 76.4942L405.492 76.495L405.492 76.4958L405.492 76.4966L405.492 76.4974L405.491 76.4982L405.491 76.499L405.491 76.4998L405.491 76.5006L405.49 76.5014L405.49 76.5022L405.49 76.503L405.49 76.5038L405.489 76.5046L405.489 76.5053L405.489 76.5061L405.489 76.5069L405.489 76.5077L405.488 76.5085L405.488 76.5093L405.488 76.5101L405.488 76.5109L405.487 76.5116L405.487 76.5124L405.487 76.5132L405.487 76.514L405.487 76.5148L405.486 76.5155L405.486 76.5163L405.486 76.5171L405.486 76.5179L405.486 76.5186L405.485 76.5194L405.485 76.5202L405.485 76.5209L405.485 76.5217L405.484 76.5225L405.484 76.5232L405.484 76.524L405.484 76.5248L405.484 76.5255L405.483 76.5263L405.483 76.5271L405.483 76.5278L405.483 76.5286L405.482 76.5293L405.482 76.5301L405.482 76.5309L405.482 76.5316L405.482 76.5324L405.481 76.5331L405.481 76.5339L405.481 76.5346L405.481 76.5354L405.481 76.5361L405.48 76.5369L405.48 76.5376L405.48 76.5384L405.48 76.5391L405.48 76.5398L405.479 76.5406L405.479 76.5413L405.479 76.5421L405.479 76.5428L405.478 76.5435L405.478 76.5443L405.478 76.545L405.478 76.5458L405.478 76.5465L405.477 76.5472L405.477 76.548L405.477 76.5487L405.477 76.5494L405.477 76.5501L405.476 76.5509L405.476 76.5516L405.476 76.5523L405.476 76.5531L405.476 76.5538L405.475 76.5545L405.475 76.5552L405.475 76.5559L405.475 76.5567L405.475 76.5574L405.474 76.5581L405.474 76.5588L405.474 76.5595L405.474 76.5603L405.474 76.561L405.473 76.5617L405.473 76.5624L405.473 76.5631L405.473 76.5638L405.473 76.5645L405.472 76.5652L405.472 76.566L405.472 76.5667L405.472 76.5674L405.472 76.5681L405.471 76.5688L405.471 76.5695L405.471 76.5702L405.471 76.5709L405.471 76.5716L405.47 76.5723L405.47 76.573L405.47 76.5737L405.47 76.5744L405.47 76.5751L405.469 76.5758L405.469 76.5765L405.469 76.5772L405.469 76.5779L405.469 76.5786L405.468 76.5792L405.468 76.5799L405.468 76.5806L405.468 76.5813L405.468 76.582L405.467 76.5827L405.467 76.5834L405.467 76.5841L405.467 76.5847L405.467 76.5854L405.466 76.5861L405.466 76.5868L405.466 76.5875L405.466 76.5881L405.466 76.5888L405.465 76.5895L405.465 76.5902L405.465 76.5909L405.465 76.5915L405.465 76.5922L405.464 76.5929L405.464 76.5936L405.464 76.5942L405.464 76.5949L405.464 76.5956L405.464 76.5962L405.463 76.5969L405.463 76.5976L405.463 76.5982L405.463 76.5989L405.463 76.5996L405.462 76.6002L405.462 76.6009L405.462 76.6016L405.462 76.6022L405.462 76.6029L405.461 76.6035L405.461 76.6042L405.461 76.6049L405.461 76.6055L405.461 76.6062L405.461 76.6068L405.46 76.6075L405.46 76.6081L405.46 76.6088L405.46 76.6095L405.46 76.6101L405.459 76.6108L405.459 76.6114L405.459 76.6121L405.459 76.6127L405.459 76.6134L405.459 76.614L405.458 76.6147L405.458 76.6153L405.458 76.6159L405.458 76.6166L405.458 76.6172L405.457 76.6179L405.457 76.6185L405.457 76.6192L405.457 76.6198L405.457 76.6204L405.457 76.6211L405.456 76.6217L405.456 76.6224L405.456 76.623L405.456 76.6236L405.456 76.6243L405.455 76.6249L405.455 76.6255L405.455 76.6262L405.455 76.6268L405.455 76.6274L405.455 76.6281L405.454 76.6287L405.454 76.6293L405.454 76.63L405.454 76.6306L405.454 76.6312L405.453 76.6318L405.453 76.6325L405.453 76.6331L405.453 76.6337L405.453 76.6343L405.453 76.635L405.452 76.6356L405.452 76.6362L405.452 76.6368L405.452 76.6375L405.452 76.6381L405.452 76.6387L405.451 76.6393L405.451 76.6399L405.451 76.6405L405.451 76.6412L405.451 76.6418L405.45 76.6424L405.45 76.643L405.45 76.6436L405.45 76.6442L405.45 76.6448L405.45 76.6455L405.449 76.6461L405.449 76.6467L405.449 76.6473L405.449 76.6479L405.449 76.6485L405.449 76.6491L405.448 76.6497L405.448 76.6503L405.448 76.6509L405.448 76.6515L405.448 76.6521L405.448 76.6527L405.447 76.6534L405.447 76.654L405.447 76.6546L405.447 76.6552L405.447 76.6558L405.447 76.6564L405.446 76.657L405.446 76.6576L405.446 76.6582L405.446 76.6588L405.446 76.6594L405.446 76.6599L405.445 76.6605L405.445 76.6611L405.445 76.6617L405.445 76.6623L405.445 76.6629L405.445 76.6635L405.444 76.6641L405.444 76.6647L405.444 76.6653L405.444 76.6659L405.444 76.6665L405.444 76.6671L405.443 76.6676L405.443 76.6682L405.443 76.6688L405.443 76.6694C404.971 78.3377 403.988 79.6696 402.734 80.5151C401.426 81.3886 399.866 81.7156 398.261 81.3648L397.989 81.2878C396.313 80.8137 394.976 79.6415 394.151 78.0926C393.388 76.6138 393.094 74.7592 393.497 72.951L393.498 72.95L393.498 72.949L393.498 72.948L393.498 72.947L393.499 72.946L393.499 72.945L393.499 72.9439L393.5 72.9429L393.5 72.9419L393.5 72.9409L393.5 72.9399L393.501 72.9389L393.501 72.9379L393.501 72.9369L393.502 72.9358L393.502 72.9348L393.502 72.9338L393.502 72.9328L393.503 72.9318L393.503 72.9308L393.503 72.9298L393.504 72.9288L393.504 72.9278L393.504 72.9268L393.504 72.9258L393.505 72.9248L393.505 72.9238L393.505 72.9228L393.506 72.9218L393.506 72.9208L393.506 72.9198L393.506 72.9188L393.507 72.9178L393.507 72.9168L393.507 72.9158L393.508 72.9148L393.508 72.9138L393.508 72.9128L393.508 72.9118L393.509 72.9108L393.509 72.9098L393.509 72.9088L393.51 72.9078L393.51 72.9068L393.51 72.9058L393.51 72.9048L393.511 72.9038L393.511 72.9028L393.511 72.9018L393.511 72.9009L393.512 72.8999L393.512 72.8989L393.512 72.8979L393.513 72.8969L393.513 72.8959L393.513 72.8949L393.513 72.894L393.514 72.893L393.514 72.892L393.514 72.891L393.515 72.89L393.515 72.889L393.515 72.8881L393.515 72.8871L393.516 72.8861L393.516 72.8851L393.516 72.8841L393.517 72.8832L393.517 72.8822L393.517 72.8812L393.517 72.8802L393.518 72.8793L393.518 72.8783L393.518 72.8773L393.518 72.8763L393.519 72.8754L393.519 72.8744L393.519 72.8734L393.52 72.8725L393.52 72.8715L393.52 72.8705L393.52 72.8696L393.521 72.8686L393.521 72.8676L393.521 72.8667L393.521 72.8657L393.522 72.8647L393.522 72.8638L393.522 72.8628L393.523 72.8618L393.523 72.8609L393.523 72.8599L393.523 72.859L393.524 72.858L393.524 72.857L393.524 72.8561L393.524 72.8551L393.525 72.8542L393.525 72.8532L393.525 72.8523L393.526 72.8513L393.526 72.8503L393.526 72.8494L393.526 72.8484L393.527 72.8475L393.527 72.8465L393.527 72.8456L393.527 72.8446L393.528 72.8437L393.528 72.8427L393.528 72.8418L393.528 72.8408L393.529 72.8399L393.529 72.839L393.529 72.838L393.53 72.8371L393.53 72.8361L393.53 72.8352L393.53 72.8342L393.531 72.8333L393.531 72.8324L393.531 72.8314L393.531 72.8305L393.532 72.8295L393.532 72.8286L393.532 72.8277L393.532 72.8267L393.533 72.8258L393.533 72.8249L393.533 72.8239L393.534 72.823L393.534 72.8221L393.534 72.8211L393.534 72.8202L393.535 72.8193L393.535 72.8183L393.535 72.8174L393.535 72.8165L393.536 72.8156L393.536 72.8146L393.536 72.8137L393.536 72.8128L393.537 72.8119L393.537 72.8109L393.537 72.81L393.537 72.8091L393.538 72.8082L393.538 72.8072L393.538 72.8063L393.539 72.8054L393.539 72.8045L393.539 72.8036L393.539 72.8027L393.54 72.8017L393.54 72.8008L393.54 72.7999L393.54 72.799L393.541 72.7981L393.541 72.7972L393.541 72.7963L393.541 72.7953L393.542 72.7944L393.542 72.7935L393.542 72.7926L393.542 72.7917L393.543 72.7908L393.543 72.7899L393.543 72.789L393.543 72.7881L393.544 72.7872L393.544 72.7863L393.544 72.7854L393.544 72.7845L393.545 72.7836L393.545 72.7827L393.545 72.7818L393.545 72.7809L393.546 72.78L393.546 72.7791L393.546 72.7782L393.546 72.7773L393.547 72.7764L393.547 72.7755L393.547 72.7746L393.547 72.7737L393.548 72.7728L393.548 72.7719L393.548 72.7711L393.548 72.7702L393.549 72.7693L393.549 72.7684L393.549 72.7675L393.549 72.7666L393.55 72.7657L393.55 72.7649L393.55 72.764L393.55 72.7631L393.551 72.7622L393.551 72.7613L393.551 72.7604L393.551 72.7596L393.552 72.7587L393.552 72.7578L393.552 72.7569L393.552 72.7561L393.553 72.7552L393.553 72.7543L393.553 72.7534L393.553 72.7526L393.554 72.7517L393.554 72.7508L393.554 72.7499L393.554 72.7491L393.555 72.7482L393.555 72.7473L393.555 72.7465L393.555 72.7456L393.556 72.7447L393.556 72.7439L393.556 72.743L393.556 72.7422L393.557 72.7413L393.557 72.7404L393.557 72.7396L393.557 72.7387L393.558 72.7379L393.558 72.737L393.558 72.7361L393.558 72.7353L393.559 72.7344L393.559 72.7336L393.559 72.7327L393.559 72.7319L393.56 72.731L393.56 72.7302L393.56 72.7293L393.56 72.7285L393.561 72.7276L393.561 72.7268L393.561 72.7259L393.561 72.7251L393.561 72.7242L393.562 72.7234L393.562 72.7226L393.562 72.7217L393.562 72.7209L393.563 72.72L393.563 72.7192L393.563 72.7183L393.563 72.7175L393.564 72.7167L393.564 72.7158L393.564 72.715L393.564 72.7142L393.565 72.7133L393.565 72.7125L393.565 72.7117L393.565 72.7108L393.565 72.71L393.566 72.7092L393.566 72.7084L393.566 72.7075L393.566 72.7067L393.567 72.7059L393.567 72.705L393.567 72.7042L393.567 72.7034L393.568 72.7026L393.568 72.7018L393.568 72.7009L393.568 72.7001L393.569 72.6993L393.569 72.6985L393.569 72.6977L393.569 72.6968L393.569 72.696L393.57 72.6952L393.57 72.6944L393.57 72.6936L393.57 72.6928L393.571 72.692L393.571 72.6912L393.571 72.6904L393.571 72.6895L393.572 72.6887L393.572 72.6879L393.572 72.6871L393.572 72.6863L393.572 72.6855L393.573 72.6847L393.573 72.6839L393.573 72.6831L393.573 72.6823L393.574 72.6815L393.574 72.6807L393.574 72.6799L393.574 72.6791L393.574 72.6783L393.575 72.6775L393.575 72.6767L393.575 72.676L393.575 72.6752L393.576 72.6744L393.576 72.6736L393.576 72.6728L393.576 72.672L393.576 72.6712L393.577 72.6704L393.577 72.6696L393.577 72.6689L393.577 72.6681L393.578 72.6673L393.578 72.6665L393.578 72.6657L393.578 72.665L393.578 72.6642L393.579 72.6634L393.579 72.6626L393.579 72.6619L393.579 72.6611L393.58 72.6603L393.58 72.6595L393.58 72.6588L393.58 72.658L393.58 72.6572L393.581 72.6565L393.581 72.6557L393.581 72.6549L393.581 72.6541L393.582 72.6534L393.582 72.6526L393.582 72.6519L393.582 72.6511L393.582 72.6503L393.583 72.6496L393.583 72.6488L393.583 72.6481L393.583 72.6473L393.583 72.6465L393.584 72.6458L393.584 72.645L393.584 72.6443L393.584 72.6435L393.585 72.6428L393.585 72.642L393.585 72.6413L393.585 72.6405L393.585 72.6398L393.586 72.639L393.586 72.6383L393.586 72.6375L393.586 72.6368L393.586 72.6361L393.587 72.6353L393.587 72.6346L393.587 72.6338L393.587 72.6331L393.587 72.6324L393.588 72.6316L393.588 72.6309L393.588 72.6302L393.588 72.6294L393.588 72.6287L393.589 72.628L393.589 72.6272L393.589 72.6265L393.589 72.6258L393.59 72.625L393.59 72.6243L393.59 72.6236L393.59 72.6229L393.59 72.6221L393.591 72.6214L393.591 72.6207L393.591 72.62L393.591 72.6192L393.591 72.6185L393.592 72.6178L393.592 72.6171L393.592 72.6164L393.592 72.6157L393.592 72.615L393.593 72.6142L393.593 72.6135L393.593 72.6128L393.593 72.6121L393.593 72.6114L393.594 72.6107L393.594 72.61L393.594 72.6093L393.594 72.6086L393.594 72.6079L393.595 72.6072L393.595 72.6065L393.595 72.6058L393.595 72.6051L393.595 72.6044L393.596 72.6037L393.596 72.603L393.596 72.6023L393.596 72.6016L393.596 72.6009L393.597 72.6002L393.597 72.5995L393.597 72.5988L393.597 72.5981L393.597 72.5974L393.598 72.5968L393.598 72.5961L393.598 72.5954L393.598 72.5947L393.598 72.594L393.598 72.5933L393.599 72.5927L393.599 72.592L393.599 72.5913L393.599 72.5906L393.599 72.5899L393.6 72.5893L393.6 72.5886L393.6 72.5879L393.6 72.5872L393.6 72.5866L393.601 72.5859L393.601 72.5852L393.601 72.5846L393.601 72.5839L393.601 72.5832L393.602 72.5826L393.602 72.5819L393.602 72.5812L393.602 72.5806L393.602 72.5799L393.602 72.5793L393.603 72.5786L393.603 72.5779L393.603 72.5773L393.603 72.5766L393.603 72.576L393.604 72.5753L393.604 72.5747L393.604 72.574L393.604 72.5734L393.604 72.5727L393.605 72.5721L393.605 72.5714L393.605 72.5708L393.605 72.5701L393.605 72.5695L393.605 72.5689L393.606 72.5682L393.606 72.5676L393.606 72.5669L393.606 72.5663L393.606 72.5657L393.607 72.565L393.607 72.5644L393.607 72.5638L393.607 72.5631L393.607 72.5625L393.607 72.5619L393.608 72.5612L393.608 72.5606L393.608 72.56L393.608 72.5594L393.608 72.5587L393.608 72.5581L393.609 72.5575L393.609 72.5569L393.609 72.5562L393.609 72.5556L393.609 72.555L393.61 72.5544L393.61 72.5538L393.61 72.5532L393.61 72.5525L393.61 72.5519L393.61 72.5513L393.611 72.5507L393.611 72.5501L393.611 72.5495L393.611 72.5489L393.611 72.5483L393.611 72.5477L393.612 72.5471L393.612 72.5465L393.612 72.5459L393.612 72.5453L393.612 72.5447L393.612 72.5441L393.613 72.5435L393.613 72.5429L393.613 72.5423L393.613 72.5417L393.613 72.5411L393.613 72.5405L393.614 72.5399L393.614 72.5393L393.614 72.5388L404.898 71.1384ZM394.967 110.721L394.963 110.722C393.236 111.082 391.636 111.371 390.263 110.982C388.005 110.343 386.478 109.117 385.659 107.447C384.875 105.833 384.776 103.779 385.461 101.355C386.515 97.6332 389.403 93.2473 393.433 90.6218L393.436 90.6199C396.659 88.4885 400.614 87.4502 404.982 88.6859C409.323 89.9141 412.149 92.8702 413.777 96.3746L413.779 96.3777C415.836 100.725 415.999 105.975 414.946 109.697C414.26 112.12 413.1 113.818 411.586 114.782C410.014 115.776 408.071 116.02 405.812 115.381C404.44 114.993 403.256 113.918 401.972 112.705L401.972 112.705L401.966 112.699L401.957 112.69C401.449 112.227 400.923 111.745 400.41 111.349C399.901 110.955 399.361 110.609 398.823 110.457C398.274 110.301 397.627 110.311 396.984 110.38C396.334 110.449 395.635 110.587 394.967 110.721ZM379.341 82.3208L379.343 82.31L378.854 82.2075L379.341 82.3208ZM414.22 73.776C415.741 72.8657 417.493 72.5672 419.169 73.0414L419.441 73.1184C420.987 73.6588 422.141 74.7767 422.807 76.1878C423.431 77.5641 423.57 79.2128 423.099 80.8802L423.098 80.8808L423.098 80.8814L423.098 80.882L423.098 80.8825L423.098 80.8831L423.098 80.8837L423.097 80.8843L423.097 80.8849L423.097 80.8855L423.097 80.8861L423.097 80.8867L423.097 80.8873L423.096 80.8879L423.096 80.8885L423.096 80.8891L423.096 80.8897L423.096 80.8903L423.095 80.8909L423.095 80.8915L423.095 80.8922L423.095 80.8928L423.095 80.8934L423.095 80.894L423.094 80.8946L423.094 80.8952L423.094 80.8958L423.094 80.8964L423.094 80.8971L423.094 80.8977L423.093 80.8983L423.093 80.8989L423.093 80.8995L423.093 80.9002L423.093 80.9008L423.093 80.9014L423.092 80.902L423.092 80.9027L423.092 80.9033L423.092 80.9039L423.092 80.9046L423.091 80.9052L423.091 80.9058L423.091 80.9065L423.091 80.9071L423.091 80.9077L423.091 80.9084L423.09 80.909L423.09 80.9097L423.09 80.9103L423.09 80.9109L423.09 80.9116L423.089 80.9122L423.089 80.9129L423.089 80.9135L423.089 80.9142L423.089 80.9148L423.089 80.9155L423.088 80.9161L423.088 80.9168L423.088 80.9174L423.088 80.9181L423.088 80.9187L423.087 80.9194L423.087 80.92L423.087 80.9207L423.087 80.9214L423.087 80.922L423.086 80.9227L423.086 80.9233L423.086 80.924L423.086 80.9247L423.086 80.9253L423.086 80.926L423.085 80.9267L423.085 80.9273L423.085 80.928L423.085 80.9287L423.085 80.9294L423.084 80.93L423.084 80.9307L423.084 80.9314L423.084 80.9321L423.084 80.9327L423.083 80.9334L423.083 80.9341L423.083 80.9348L423.083 80.9355L423.083 80.9361L423.082 80.9368L423.082 80.9375L423.082 80.9382L423.082 80.9389L423.082 80.9396L423.082 80.9403L423.081 80.9409L423.081 80.9416L423.081 80.9423L423.081 80.943L423.081 80.9437L423.08 80.9444L423.08 80.9451L423.08 80.9458L423.08 80.9465L423.08 80.9472L423.079 80.9479L423.079 80.9486L423.079 80.9493L423.079 80.95L423.079 80.9507L423.078 80.9514L423.078 80.9521L423.078 80.9528L423.078 80.9535L423.078 80.9543L423.077 80.955L423.077 80.9557L423.077 80.9564L423.077 80.9571L423.077 80.9578L423.076 80.9585L423.076 80.9592L423.076 80.96L423.076 80.9607L423.076 80.9614L423.075 80.9621L423.075 80.9628L423.075 80.9636L423.075 80.9643L423.075 80.965L423.074 80.9657L423.074 80.9665L423.074 80.9672L423.074 80.9679L423.073 80.9687L423.073 80.9694L423.073 80.9701L423.073 80.9709L423.073 80.9716L423.072 80.9723L423.072 80.9731L423.072 80.9738L423.072 80.9745L423.072 80.9753L423.071 80.976L423.071 80.9768L423.071 80.9775L423.071 80.9782L423.071 80.979L423.07 80.9797L423.07 80.9805L423.07 80.9812L423.07 80.982L423.07 80.9827L423.069 80.9835L423.069 80.9842L423.069 80.985L423.069 80.9857L423.068 80.9865L423.068 80.9872L423.068 80.988L423.068 80.9887L423.068 80.9895L423.067 80.9903L423.067 80.991L423.067 80.9918L423.067 80.9925L423.067 80.9933L423.066 80.9941L423.066 80.9948L423.066 80.9956L423.066 80.9964L423.065 80.9971L423.065 80.9979L423.065 80.9987L423.065 80.9994L423.065 81.0002L423.064 81.001L423.064 81.0017L423.064 81.0025L423.064 81.0033L423.063 81.0041L423.063 81.0048L423.063 81.0056L423.063 81.0064L423.063 81.0072L423.062 81.008L423.062 81.0087L423.062 81.0095L423.062 81.0103L423.061 81.0111L423.061 81.0119L423.061 81.0127L423.061 81.0134L423.061 81.0142L423.06 81.015L423.06 81.0158L423.06 81.0166L423.06 81.0174L423.059 81.0182L423.059 81.019L423.059 81.0198L423.059 81.0206L423.059 81.0214L423.058 81.0222L423.058 81.023L423.058 81.0238L423.058 81.0246L423.057 81.0254L423.057 81.0262L423.057 81.027L423.057 81.0278L423.057 81.0286L423.056 81.0294L423.056 81.0302L423.056 81.031L423.056 81.0318L423.055 81.0326L423.055 81.0334L423.055 81.0342L423.055 81.035L423.054 81.0358L423.054 81.0367L423.054 81.0375L423.054 81.0383L423.054 81.0391L423.053 81.0399L423.053 81.0407L423.053 81.0416L423.053 81.0424L423.052 81.0432L423.052 81.044L423.052 81.0448L423.052 81.0457L423.051 81.0465L423.051 81.0473L423.051 81.0481L423.051 81.049L423.051 81.0498L423.05 81.0506L423.05 81.0514L423.05 81.0523L423.05 81.0531L423.049 81.0539L423.049 81.0548L423.049 81.0556L423.049 81.0564L423.048 81.0573L423.048 81.0581L423.048 81.0589L423.048 81.0598L423.047 81.0606L423.047 81.0615L423.047 81.0623L423.047 81.0631L423.047 81.064L423.046 81.0648L423.046 81.0657L423.046 81.0665L423.046 81.0674L423.045 81.0682L423.045 81.0691L423.045 81.0699L423.045 81.0708L423.044 81.0716L423.044 81.0725L423.044 81.0733L423.044 81.0742L423.043 81.075L423.043 81.0759L423.043 81.0767L423.043 81.0776L423.042 81.0784L423.042 81.0793L423.042 81.0802L423.042 81.081L423.041 81.0819L423.041 81.0827L423.041 81.0836L423.041 81.0845L423.04 81.0853L423.04 81.0862L423.04 81.087L423.04 81.0879L423.04 81.0888L423.039 81.0896L423.039 81.0905L423.039 81.0914L423.039 81.0923L423.038 81.0931L423.038 81.094L423.038 81.0949L423.038 81.0957L423.037 81.0966L423.037 81.0975L423.037 81.0984L423.037 81.0992L423.036 81.1001L423.036 81.101L423.036 81.1019L423.036 81.1028L423.035 81.1036L423.035 81.1045L423.035 81.1054L423.035 81.1063L423.034 81.1072L423.034 81.1081L423.034 81.1089L423.034 81.1098L423.033 81.1107L423.033 81.1116L423.033 81.1125L423.033 81.1134L423.032 81.1143L423.032 81.1152L423.032 81.1161L423.032 81.1169L423.031 81.1178L423.031 81.1187L423.031 81.1196L423.031 81.1205L423.03 81.1214L423.03 81.1223L423.03 81.1232L423.03 81.1241L423.029 81.125L423.029 81.1259L423.029 81.1268L423.028 81.1277L423.028 81.1286L423.028 81.1295L423.028 81.1304L423.027 81.1313L423.027 81.1322L423.027 81.1332L423.027 81.1341L423.026 81.135L423.026 81.1359L423.026 81.1368L423.026 81.1377L423.025 81.1386L423.025 81.1395L423.025 81.1404L423.025 81.1413L423.024 81.1423L423.024 81.1432L423.024 81.1441L423.024 81.145L423.023 81.1459L423.023 81.1468L423.023 81.1478L423.023 81.1487L423.022 81.1496L423.022 81.1505L423.022 81.1514L423.022 81.1524L423.021 81.1533L423.021 81.1542L423.021 81.1551L423.02 81.1561L423.02 81.157L423.02 81.1579L423.02 81.1588L423.019 81.1598L423.019 81.1607L423.019 81.1616L423.019 81.1626L423.018 81.1635L423.018 81.1644L423.018 81.1654L423.018 81.1663L423.017 81.1672L423.017 81.1682L423.017 81.1691L423.017 81.17L423.016 81.171L423.016 81.1719L423.016 81.1729L423.015 81.1738L423.015 81.1747L423.015 81.1757L423.015 81.1766L423.014 81.1776L423.014 81.1785L423.014 81.1795L423.014 81.1804L423.013 81.1813L423.013 81.1823L423.013 81.1832L423.013 81.1842L423.012 81.1851L423.012 81.1861L423.012 81.187L423.011 81.188L423.011 81.1889L423.011 81.1899L423.011 81.1908L423.01 81.1918L423.01 81.1927L423.01 81.1937L423.01 81.1947L423.009 81.1956L423.009 81.1966L423.009 81.1975L423.008 81.1985L423.008 81.1994L423.008 81.2004L423.008 81.2014L423.007 81.2023L423.007 81.2033L423.007 81.2042L423.007 81.2052L423.006 81.2062L423.006 81.2071L423.006 81.2081L423.005 81.2091L423.005 81.21L423.005 81.211L423.005 81.212L423.004 81.2129L423.004 81.2139L423.004 81.2149L423.004 81.2158L423.003 81.2168L423.003 81.2178L423.003 81.2188L423.002 81.2197L423.002 81.2207L423.002 81.2217L423.002 81.2227L423.001 81.2236L423.001 81.2246L423.001 81.2256L423.001 81.2266L423 81.2275L423 81.2285L423 81.2295L422.999 81.2305L422.999 81.2315L422.999 81.2324L422.999 81.2334L422.998 81.2344L422.998 81.2354L422.998 81.2364L422.997 81.2374L422.997 81.2383L422.997 81.2393L422.997 81.2403L422.996 81.2413L422.996 81.2423L422.996 81.2433L422.996 81.2443L422.995 81.2453L422.995 81.2463L422.995 81.2472L422.994 81.2482L422.994 81.2492L422.994 81.2502L422.994 81.2512L422.993 81.2522L422.993 81.2532L422.993 81.2542L422.992 81.2552L422.992 81.2562L422.992 81.2572L422.992 81.2582L422.991 81.2592L422.991 81.2602L422.991 81.2612L422.99 81.2622L422.99 81.2632L422.99 81.2642L422.99 81.2652L422.989 81.2662L422.989 81.2672L422.989 81.2682L422.988 81.2692L422.988 81.2702L422.988 81.2712L422.988 81.2722L422.987 81.2732L422.987 81.2743L422.987 81.2753L422.986 81.2763L422.986 81.2773L422.986 81.2783L422.986 81.2793L422.985 81.2803L422.985 81.2813L422.985 81.2823L422.984 81.2834L422.984 81.2844L422.984 81.2854L422.984 81.2864L422.983 81.2874L422.983 81.2884L422.983 81.2894L422.982 81.2905L422.982 81.2915L422.982 81.2924C422.378 83.0437 421.156 84.4699 419.732 85.3297C418.217 86.2164 416.464 86.5145 414.788 86.0404L414.516 85.9634C412.965 85.4215 411.808 84.3257 411.151 82.8963C410.527 81.5195 410.387 79.8699 410.859 78.2016L410.859 78.201L410.859 78.2005L410.859 78.1999L410.859 78.1993L410.86 78.1987L410.86 78.1981L410.86 78.1975L410.86 78.1969L410.86 78.1963L410.86 78.1957L410.861 78.1951L410.861 78.1945L410.861 78.194L410.861 78.1934L410.861 78.1928L410.861 78.1922L410.862 78.1916L410.862 78.191L410.862 78.1904L410.862 78.1898L410.862 78.1892L410.862 78.1886L410.863 78.188L410.863 78.1874L410.863 78.1868L410.863 78.1862L410.863 78.1856L410.864 78.185L410.864 78.1844L410.864 78.1838L410.864 78.1832L410.864 78.1825L410.864 78.1819L410.865 78.1813L410.865 78.1807L410.865 78.1801L410.865 78.1795L410.865 78.1789L410.865 78.1783L410.866 78.1777L410.866 78.1771L410.866 78.1765L410.866 78.1758L410.866 78.1752L410.866 78.1746L410.867 78.174L410.867 78.1734L410.867 78.1728L410.867 78.1721L410.867 78.1715L410.867 78.1709L410.868 78.1703L410.868 78.1697L410.868 78.1691L410.868 78.1684L410.868 78.1678L410.869 78.1672L410.869 78.1666L410.869 78.1659L410.869 78.1653L410.869 78.1647L410.869 78.1641L410.87 78.1634L410.87 78.1628L410.87 78.1622L410.87 78.1615L410.87 78.1609L410.871 78.1603L410.871 78.1597L410.871 78.159L410.871 78.1584L410.871 78.1578L410.871 78.1571L410.872 78.1565L410.872 78.1559L410.872 78.1552L410.872 78.1546L410.872 78.1539L410.872 78.1533L410.873 78.1527L410.873 78.152L410.873 78.1514L410.873 78.1507L410.873 78.1501L410.874 78.1495L410.874 78.1488L410.874 78.1482L410.874 78.1475L410.874 78.1469L410.874 78.1462L410.875 78.1456L410.875 78.1449L410.875 78.1443L410.875 78.1436L410.875 78.143L410.876 78.1423L410.876 78.1417L410.876 78.141L410.876 78.1404L410.876 78.1397L410.877 78.1391L410.877 78.1384L410.877 78.1377L410.877 78.1371L410.877 78.1364L410.877 78.1358L410.878 78.1351L410.878 78.1344L410.878 78.1338L410.878 78.1331L410.878 78.1325L410.879 78.1318L410.879 78.1311L410.879 78.1305L410.879 78.1298L410.879 78.1291L410.88 78.1285L410.88 78.1278L410.88 78.1271L410.88 78.1264L410.88 78.1258L410.88 78.1251L410.881 78.1244L410.881 78.1238L410.881 78.1231L410.881 78.1224L410.881 78.1217L410.882 78.121L410.882 78.1204L410.882 78.1197L410.882 78.119L410.882 78.1183L410.883 78.1176L410.883 78.117L410.883 78.1163L410.883 78.1156L410.883 78.1149L410.884 78.1142L410.884 78.1135L410.884 78.1128L410.884 78.1122L410.884 78.1115L410.885 78.1108L410.885 78.1101L410.885 78.1094L410.885 78.1087L410.885 78.108L410.885 78.1073L410.886 78.1066L410.886 78.1059L410.886 78.1052L410.886 78.1045L410.886 78.1038L410.887 78.1031L410.887 78.1024L410.887 78.1017L410.887 78.101L410.887 78.1003L410.888 78.0996L410.888 78.0989L410.888 78.0982L410.888 78.0975L410.888 78.0968L410.889 78.096L410.889 78.0953L410.889 78.0946L410.889 78.0939L410.889 78.0932L410.89 78.0925L410.89 78.0918L410.89 78.091L410.89 78.0903L410.89 78.0896L410.891 78.0889L410.891 78.0882L410.891 78.0874L410.891 78.0867L410.892 78.086L410.892 78.0853L410.892 78.0846L410.892 78.0838L410.892 78.0831L410.893 78.0824L410.893 78.0816L410.893 78.0809L410.893 78.0802L410.893 78.0794L410.894 78.0787L410.894 78.078L410.894 78.0772L410.894 78.0765L410.894 78.0758L410.895 78.075L410.895 78.0743L410.895 78.0735L410.895 78.0728L410.895 78.0721L410.896 78.0713L410.896 78.0706L410.896 78.0698L410.896 78.0691L410.897 78.0683L410.897 78.0676L410.897 78.0668L410.897 78.0661L410.897 78.0653L410.898 78.0646L410.898 78.0638L410.898 78.0631L410.898 78.0623L410.898 78.0616L410.899 78.0608L410.899 78.06L410.899 78.0593L410.899 78.0585L410.9 78.0578L410.9 78.057L410.9 78.0562L410.9 78.0555L410.9 78.0547L410.901 78.0539L410.901 78.0532L410.901 78.0524L410.901 78.0516L410.901 78.0509L410.902 78.0501L410.902 78.0493L410.902 78.0485L410.902 78.0478L410.903 78.047L410.903 78.0462L410.903 78.0454L410.903 78.0446L410.903 78.0439L410.904 78.0431L410.904 78.0423L410.904 78.0415L410.904 78.0407L410.905 78.0399L410.905 78.0391L410.905 78.0384L410.905 78.0376L410.905 78.0368L410.906 78.036L410.906 78.0352L410.906 78.0344L410.906 78.0336L410.907 78.0328L410.907 78.032L410.907 78.0312L410.907 78.0304L410.907 78.0296L410.908 78.0288L410.908 78.028L410.908 78.0272L410.908 78.0264L410.909 78.0256L410.909 78.0248L410.909 78.024L410.909 78.0231L410.91 78.0223L410.91 78.0215L410.91 78.0207L410.91 78.0199L410.91 78.0191L410.911 78.0183L410.911 78.0174L410.911 78.0166L410.911 78.0158L410.912 78.015L410.912 78.0141L410.912 78.0133L410.912 78.0125L410.913 78.0117L410.913 78.0108L410.913 78.01L410.913 78.0092L410.913 78.0083L410.914 78.0075L410.914 78.0067L410.914 78.0058L410.914 78.005L410.915 78.0042L410.915 78.0033L410.915 78.0025L410.915 78.0016L410.916 78.0008L410.916 78L410.916 77.9991L410.916 77.9983L410.917 77.9974L410.917 77.9966L410.917 77.9957L410.917 77.9949L410.918 77.994L410.918 77.9932L410.918 77.9923L410.918 77.9915L410.919 77.9906L410.919 77.9897L410.919 77.9889L410.919 77.988L410.919 77.9872L410.92 77.9863L410.92 77.9854L410.92 77.9846L410.92 77.9837L410.921 77.9828L410.921 77.982L410.921 77.9811L410.921 77.9802L410.922 77.9793L410.922 77.9785L410.922 77.9776L410.922 77.9767L410.923 77.9758L410.923 77.9749L410.923 77.9741L410.923 77.9732L410.924 77.9723L410.924 77.9714L410.924 77.9705L410.924 77.9696L410.925 77.9687L410.925 77.9679L410.925 77.967L410.925 77.9661L410.926 77.9652L410.926 77.9643L410.926 77.9634L410.926 77.9625L410.927 77.9616L410.927 77.9607L410.927 77.9598L410.927 77.9589L410.928 77.958L410.928 77.9571L410.928 77.9562L410.929 77.9553L410.929 77.9543L410.929 77.9534L410.929 77.9525L410.93 77.9516L410.93 77.9507L410.93 77.9498L410.93 77.9489L410.931 77.9479L410.931 77.947L410.931 77.9461L410.931 77.9452L410.932 77.9442L410.932 77.9433L410.932 77.9424L410.932 77.9415L410.933 77.9405L410.933 77.9396L410.933 77.9387L410.933 77.9377L410.934 77.9368L410.934 77.9359L410.934 77.9349L410.935 77.934L410.935 77.933L410.935 77.9321L410.935 77.9311L410.936 77.9302L410.936 77.9292L410.936 77.9283L410.936 77.9274L410.937 77.9264L410.937 77.9254L410.937 77.9245L410.937 77.9235L410.938 77.9226L410.938 77.9216L410.938 77.9207L410.939 77.9197L410.939 77.9187L410.939 77.9178L410.939 77.9168L410.94 77.9158L410.94 77.9149L410.94 77.9139L410.94 77.9129L410.941 77.912L410.941 77.911L410.941 77.91L410.942 77.909L410.942 77.9081L410.942 77.9071L410.942 77.9061L410.943 77.9051L410.943 77.9041L410.943 77.9031L410.944 77.9022L410.944 77.9012L410.944 77.9002L410.944 77.8992L410.945 77.8982L410.945 77.8972L410.945 77.8962L410.945 77.8952L410.946 77.8942L410.946 77.8932L410.946 77.8922L410.947 77.8912L410.947 77.8902L410.947 77.8892L410.947 77.8882L410.948 77.8872L410.948 77.8862L410.948 77.8852L410.949 77.8841L410.949 77.8831L410.949 77.8821L410.949 77.8811L410.95 77.8801L410.95 77.879L410.95 77.878L410.951 77.877L410.951 77.876L410.951 77.8749L410.952 77.8739L410.952 77.8729L410.952 77.8719L410.952 77.8708L410.953 77.8698L410.953 77.8688L410.953 77.8677L410.954 77.8667L410.954 77.8656L410.954 77.8646L410.954 77.8635L410.955 77.8625L410.955 77.8615L410.955 77.8604L410.956 77.8594L410.956 77.8583L410.956 77.8573L410.957 77.8562L410.957 77.8551L410.957 77.8541L410.957 77.853L410.958 77.852L410.958 77.8509L410.958 77.8498L410.959 77.8488L410.959 77.8477L410.959 77.8466L410.96 77.8456L410.96 77.8445L410.96 77.8434L410.96 77.8423L410.961 77.8413L410.961 77.8402L410.961 77.8391L410.962 77.838L410.962 77.8369L410.962 77.8359L410.963 77.8348L410.963 77.8337L410.963 77.8326L410.964 77.8315L410.964 77.8304L410.964 77.8293L410.964 77.8282L410.965 77.8271L410.965 77.826L410.965 77.8249L410.966 77.8238L410.966 77.8227L410.966 77.8216L410.967 77.8205L410.967 77.8194L410.967 77.8183L410.968 77.8172L410.968 77.8161L410.968 77.8149L410.969 77.8138L410.969 77.8127L410.969 77.8116L410.969 77.8105L410.97 77.8093L410.97 77.8082L410.97 77.8071L410.971 77.806L410.971 77.8048L410.971 77.8037L410.972 77.8026L410.972 77.8014L410.972 77.8003L410.973 77.7991L410.973 77.798L410.973 77.7969L410.974 77.7957L410.974 77.7946L410.974 77.7934L410.975 77.7923L410.975 77.7911L410.975 77.79L410.975 77.7894C411.579 76.0393 412.793 74.6368 414.22 73.776Z" stroke="black"/>
<path d="M30.6 42.08C37.08 42.08 45.08 46.32 54.6 54.8C67.56 69.84 74.04 85.44 74.04 101.6C74.04 117.68 66.16 128.68 50.4 134.6L47.04 135.08C38.56 135.08 31.92 128.92 27.12 116.6H26.88C24.08 126.6 20.32 131.6 15.6 131.6H14.88C8.64 131.6 4.36 119.84 2.04 96.32V89.36C2.2 81.04 4.56 76.28 9.12 75.08C10.4 75.08 11.56 76.32 12.6 78.8C10.28 82 9.12 85.76 9.12 90.08V91.16C9.12 105.96 11.28 116.96 15.6 124.16C18.8 121.84 21.16 112.32 22.68 95.6C22.68 82.08 23.68 75.32 25.68 75.32L26.88 75.08C29.52 75.08 30.84 77.68 30.84 82.88L30.12 96.08C30.12 104.96 32.88 114.2 38.4 123.8C41.12 126.52 43.88 127.88 46.68 127.88C51.24 127.88 56.12 125.04 61.32 119.36C65 114.48 66.84 108.32 66.84 100.88C66.84 84.4 59.6 69.28 45.12 55.52C41.36 52.48 35.6 50 27.84 48.08L26.88 45.8C27.44 43.32 28.68 42.08 30.6 42.08ZM101.126 63.08L104.126 62.6H105.326C106.926 62.6 108.686 63.6 110.606 65.6C114.126 65.6 119.126 70 125.606 78.8C131.126 89.2 133.886 98.44 133.886 106.52C133.886 117.56 129.886 124.92 121.886 128.6L114.326 130.16C102.326 130.16 93.6862 121.16 88.4062 103.16C87.2062 98.44 86.6062 93.84 86.6062 89.36V88.16C86.6062 74.64 91.4462 66.28 101.126 63.08ZM100.046 74.6L97.4062 73.52C94.9262 76.48 93.6862 80.76 93.6862 86.36V89.6C93.6862 104.4 98.6862 115.16 108.686 121.88L112.046 122.6H116.606C120.766 122.6 123.766 120 125.606 114.8L126.326 109.52V105.8C126.326 93.8 121.566 83.04 112.046 73.52L107.126 72.08H106.886C105.286 72.08 103.006 72.92 100.046 74.6ZM161.178 63.08L164.178 62.6H165.378C166.978 62.6 168.738 63.6 170.658 65.6C174.178 65.6 179.178 70 185.658 78.8C191.178 89.2 193.938 98.44 193.938 106.52C193.938 117.56 189.938 124.92 181.938 128.6L174.378 130.16C162.378 130.16 153.738 121.16 148.458 103.16C147.258 98.44 146.658 93.84 146.658 89.36V88.16C146.658 74.64 151.498 66.28 161.178 63.08ZM160.098 74.6L157.458 73.52C154.978 76.48 153.738 80.76 153.738 86.36V89.6C153.738 104.4 158.738 115.16 168.738 121.88L172.098 122.6H176.658C180.818 122.6 183.818 120 185.658 114.8L186.378 109.52V105.8C186.378 93.8 181.618 83.04 172.098 73.52L167.178 72.08H166.938C165.338 72.08 163.058 72.92 160.098 74.6ZM242.229 52.88C246.309 52.88 248.709 54.36 249.429 57.32C249.429 58.52 248.269 59.8 245.949 61.16L241.989 60.08H241.509C237.029 60.08 231.909 66.44 226.149 79.16C225.349 82.28 224.949 85.28 224.949 88.16V93.08H225.429C235.189 90.76 241.429 89.6 244.149 89.6C247.669 90.24 249.429 91.64 249.429 93.8C248.709 96.04 247.549 97.16 245.949 97.16L243.789 96.8C235.629 97.52 229.629 98.76 225.789 100.52V101.36L227.229 120.8C227.229 130 225.389 134.6 221.709 134.6C220.429 134.6 219.269 133.6 218.229 131.6C219.509 128.32 220.149 124.2 220.149 119.24C220.149 114.2 219.669 108.48 218.709 102.08L212.949 102.8C207.749 102.32 205.149 100.68 205.149 97.88C205.949 95.64 207.229 94.52 208.989 94.52L211.989 95.36H214.149L217.989 94.88V88.16C217.989 75.76 223.469 64.88 234.429 55.52C236.909 53.76 239.509 52.88 242.229 52.88Z" fill="white"/>
<defs>
<filter id="filter0_ii_293_75" x="378.669" y="67.209" width="52.3379" height="52.0254" filterUnits="userSpaceOnUse" color-interpolation-filters="sRGB">
<feFlood flood-opacity="0" result="BackgroundImageFix"/>
<feBlend mode="normal" in="SourceGraphic" in2="BackgroundImageFix" result="shape"/>
<feColorMatrix in="SourceAlpha" type="matrix" values="0 0 0 0 0 0 0 0 0 0 0 0 0 0 0 0 0 0 127 0" result="hardAlpha"/>
<feOffset dy="3"/>
<feGaussianBlur stdDeviation="1.5"/>
<feComposite in2="hardAlpha" operator="arithmetic" k2="-1" k3="1"/>
<feColorMatrix type="matrix" values="0 0 0 0 0 0 0 0 0 0 0 0 0 0 0 0 0 0 1 0"/>
<feBlend mode="normal" in2="shape" result="effect1_innerShadow_293_75"/>
<feColorMatrix in="SourceAlpha" type="matrix" values="0 0 0 0 0 0 0 0 0 0 0 0 0 0 0 0 0 0 127 0" result="hardAlpha"/>
<feOffset dy="2"/>
<feGaussianBlur stdDeviation="2"/>
<feComposite in2="hardAlpha" operator="arithmetic" k2="-1" k3="1"/>
<feColorMatrix type="matrix" values="0 0 0 0 0 0 0 0 0 0 0 0 0 0 0 0 0 0 0.5 0"/>
<feBlend mode="normal" in2="effect1_innerShadow_293_75" result="effect2_innerShadow_293_75"/>
</filter>
<linearGradient id="paint0_linear_293_75" x1="384.634" y1="79.1259" x2="420.074" y2="110.611" gradientUnits="userSpaceOnUse">
<stop stop-color="#52C1FF"/>
<stop offset="0.473958" stop-color="#84D251"/>
<stop offset="1" stop-color="#E9EA52"/>
</linearGradient>
</defs>
</svg>
