<svg width="582" height="94" viewBox="0 0 582 94" fill="none" xmlns="http://www.w3.org/2000/svg">
<path d="M28.6 0.0799975C35.08 0.0799975 43.08 4.32 52.6 12.8C65.56 27.84 72.04 43.44 72.04 59.6C72.04 75.68 64.16 86.68 48.4 92.6L45.04 93.08C36.56 93.08 29.92 86.92 25.12 74.6H24.88C22.08 84.6 18.32 89.6 13.6 89.6H12.88C6.64 89.6 2.36 77.84 0.0400001 54.32V47.36C0.2 39.04 2.56 34.28 7.12 33.08C8.4 33.08 9.56 34.32 10.6 36.8C8.28 40 7.12 43.76 7.12 48.08V49.16C7.12 63.96 9.28 74.96 13.6 82.16C16.8 79.84 19.16 70.32 20.68 53.6C20.68 40.08 21.68 33.32 23.68 33.32L24.88 33.08C27.52 33.08 28.84 35.68 28.84 40.88L28.12 54.08C28.12 62.96 30.88 72.2 36.4 81.8C39.12 84.52 41.88 85.88 44.68 85.88C49.24 85.88 54.12 83.04 59.32 77.36C63 72.48 64.84 66.32 64.84 58.88C64.84 42.4 57.6 27.28 43.12 13.52C39.36 10.48 33.6 8 25.84 6.08L24.88 3.79999C25.44 1.32 26.68 0.0799975 28.6 0.0799975ZM91.9263 21.08L94.9263 20.6H96.1263C97.7263 20.6 99.4863 21.6 101.406 23.6C104.926 23.6 109.926 28 116.406 36.8C121.926 47.2 124.686 56.44 124.686 64.52C124.686 75.56 120.686 82.92 112.686 86.6L105.126 88.16C93.1263 88.16 84.4863 79.16 79.2063 61.16C78.0063 56.44 77.4063 51.84 77.4063 47.36V46.16C77.4063 32.64 82.2463 24.28 91.9263 21.08ZM90.8463 32.6L88.2063 31.52C85.7263 34.48 84.4863 38.76 84.4863 44.36V47.6C84.4863 62.4 89.4863 73.16 99.4863 79.88L102.846 80.6H107.406C111.566 80.6 114.566 78 116.406 72.8L117.126 67.52V63.8C117.126 51.8 112.366 41.04 102.846 31.52L97.9263 30.08H97.6863C96.0863 30.08 93.8063 30.92 90.8463 32.6ZM144.778 21.08L147.778 20.6H148.978C150.578 20.6 152.338 21.6 154.258 23.6C157.778 23.6 162.778 28 169.258 36.8C174.778 47.2 177.538 56.44 177.538 64.52C177.538 75.56 173.538 82.92 165.538 86.6L157.978 88.16C145.978 88.16 137.338 79.16 132.058 61.16C130.858 56.44 130.258 51.84 130.258 47.36V46.16C130.258 32.64 135.098 24.28 144.778 21.08ZM143.698 32.6L141.058 31.52C138.578 34.48 137.338 38.76 137.338 44.36V47.6C137.338 62.4 142.338 73.16 152.338 79.88L155.698 80.6H160.258C164.418 80.6 167.418 78 169.258 72.8L169.978 67.52V63.8C169.978 51.8 165.218 41.04 155.698 31.52L150.778 30.08H150.538C148.938 30.08 146.658 30.92 143.698 32.6ZM218.629 10.88C222.709 10.88 225.109 12.36 225.829 15.32C225.829 16.52 224.669 17.8 222.349 19.16L218.389 18.08H217.909C213.429 18.08 208.309 24.44 202.549 37.16C201.749 40.28 201.349 43.28 201.349 46.16V51.08H201.829C211.589 48.76 217.829 47.6 220.549 47.6C224.069 48.24 225.829 49.64 225.829 51.8C225.109 54.04 223.949 55.16 222.349 55.16L220.189 54.8C212.029 55.52 206.029 56.76 202.189 58.52V59.36L203.629 78.8C203.629 88 201.789 92.6 198.109 92.6C196.829 92.6 195.669 91.6 194.629 89.6C195.909 86.32 196.549 82.2 196.549 77.24C196.549 72.2 196.069 66.48 195.109 60.08L189.349 60.8C184.149 60.32 181.549 58.68 181.549 55.88C182.349 53.64 183.629 52.52 185.389 52.52L188.389 53.36H190.549L194.389 52.88V46.16C194.389 33.76 199.869 22.88 210.829 13.52C213.309 11.76 215.909 10.88 218.629 10.88ZM304.811 0.0799975C311.291 0.0799975 319.291 4.32 328.811 12.8C341.771 27.84 348.251 43.44 348.251 59.6C348.251 75.68 340.371 86.68 324.611 92.6L321.251 93.08C312.771 93.08 306.131 86.92 301.331 74.6H301.091C298.291 84.6 294.531 89.6 289.811 89.6H289.091C282.851 89.6 278.571 77.84 276.251 54.32V47.36C276.411 39.04 278.771 34.28 283.331 33.08C284.611 33.08 285.771 34.32 286.811 36.8C284.491 40 283.331 43.76 283.331 48.08V49.16C283.331 63.96 285.491 74.96 289.811 82.16C293.011 79.84 295.371 70.32 296.891 53.6C296.891 40.08 297.891 33.32 299.891 33.32L301.091 33.08C303.731 33.08 305.051 35.68 305.051 40.88L304.331 54.08C304.331 62.96 307.091 72.2 312.611 81.8C315.331 84.52 318.091 85.88 320.891 85.88C325.451 85.88 330.331 83.04 335.531 77.36C339.211 72.48 341.051 66.32 341.051 58.88C341.051 42.4 333.811 27.28 319.331 13.52C315.571 10.48 309.811 8 302.051 6.08L301.091 3.79999C301.651 1.32 302.891 0.0799975 304.811 0.0799975ZM368.137 21.08L371.137 20.6H372.337C373.937 20.6 375.697 21.6 377.617 23.6C381.137 23.6 386.137 28 392.617 36.8C398.137 47.2 400.897 56.44 400.897 64.52C400.897 75.56 396.897 82.92 388.897 86.6L381.337 88.16C369.337 88.16 360.697 79.16 355.417 61.16C354.217 56.44 353.617 51.84 353.617 47.36V46.16C353.617 32.64 358.457 24.28 368.137 21.08ZM367.057 32.6L364.417 31.52C361.937 34.48 360.697 38.76 360.697 44.36V47.6C360.697 62.4 365.697 73.16 375.697 79.88L379.057 80.6H383.617C387.777 80.6 390.777 78 392.617 72.8L393.337 67.52V63.8C393.337 51.8 388.577 41.04 379.057 31.52L374.137 30.08H373.897C372.297 30.08 370.017 30.92 367.057 32.6ZM426.269 17.72H426.749C436.429 19.48 441.269 24.16 441.269 31.76V33.92C441.269 42.32 435.909 50.68 425.189 59V59.48C442.549 75 454.549 82.76 461.189 82.76C462.389 83.64 462.989 84.72 462.989 86C462.989 87.84 461.629 89 458.909 89.48C452.269 89.48 439.869 81.48 421.709 65.48L416.549 62.72H416.189C418.429 71.68 419.549 78.6 419.549 83.48C419.549 85.56 418.269 87.04 415.709 87.92C412.029 87.92 409.709 78.92 408.749 60.92C406.189 52.6 404.909 45.96 404.909 41V39.92C404.909 32.64 406.509 29 409.709 29L411.989 30.2H412.709C416.549 21.88 421.069 17.72 426.269 17.72ZM416.549 49.76L416.189 54.2C423.629 54.2 429.629 48.04 434.189 35.72V31.28C434.189 27.76 431.789 25.64 426.989 24.92H426.269C421.229 24.92 417.989 33.2 416.549 49.76ZM481.293 8.36C482.733 8.36 483.853 9.36 484.653 11.36C481.213 20.48 479.493 32.36 479.493 47V60.08H479.733C484.213 55.6 491.133 41.76 500.493 18.56C502.893 15.52 504.733 14 506.013 14H506.493C507.853 14 508.933 14.76 509.733 16.28V18.56C507.493 19.92 502.013 31.24 493.293 52.52L483.452 67.28V67.52C492.493 76.88 501.893 81.56 511.653 81.56H516.213C519.173 81.56 521.173 81.28 522.213 80.72C524.373 81.6 525.453 82.88 525.453 84.56V85.52C525.453 87.52 521.973 88.52 515.013 88.52H513.213C501.773 88.52 490.853 83.8 480.453 74.36H479.733V88.28C479.733 91 478.493 92.36 476.013 92.36C473.773 92.36 472.653 91 472.653 88.28V74C469.693 71.76 468.213 69.36 468.213 66.8C468.213 64.64 469.573 63.56 472.293 63.56V46.52C472.293 31 474.293 18.68 478.293 9.56C479.333 8.76 480.333 8.36 481.293 8.36ZM568.085 14.96H569.285C571.525 14.96 572.805 16.28 573.125 18.92C573.125 21.24 569.965 22.4 563.645 22.4C553.485 26.24 546.645 31.84 543.125 39.2L542.285 42.68V43.4C542.285 46.92 544.645 48.68 549.365 48.68L562.565 47.96C571.445 47.96 577.445 52.28 580.565 60.92L581.285 65.12C581.285 73.44 574.565 81.04 561.125 87.92C557.125 89.04 553.605 89.8 550.565 90.2C542.405 90.2 536.645 85.6 533.285 76.4C532.325 73.28 531.845 70.12 531.845 66.92C531.845 65.96 532.605 64.96 534.125 63.92H535.565C538.045 63.92 539.285 67.08 539.285 73.4C541.365 79.64 544.645 82.76 549.125 82.76H552.365C558.845 82.76 565.245 79 571.565 71.48C573.245 69.08 574.085 66.48 574.085 63.68C574.085 59.76 571.005 57 564.845 55.4H564.365L548.645 55.76C539.925 54.72 535.565 51.12 535.565 44.96L535.085 43.4C535.085 35.16 541.245 27.16 553.565 19.4C558.925 16.44 563.765 14.96 568.085 14.96Z" fill="white"/>
</svg>
